<svg width="38" height="48" viewBox="0 0 38 48" fill="none" xmlns="http://www.w3.org/2000/svg">
<path opacity="0.4" fill-rule="evenodd" clip-rule="evenodd" d="M16.2606 25.905C15.7083 25.905 15.2606 26.3527 15.2606 26.905V27.3099C15.2606 27.8622 15.7083 28.3099 16.2606 28.3099H16.4631L15.2606 30.7149L17.6655 39.1322L20.0705 30.7149L18.868 28.3099H19.0705C19.6228 28.3099 20.0705 27.8622 20.0705 27.3099V26.905C20.0705 26.3527 19.6228 25.905 19.0705 25.905H16.2606Z" fill="white"/>
<path fill-rule="evenodd" clip-rule="evenodd" d="M6.30868 24.7025C4.34339 24.7025 2.66923 26.1302 2.35887 28.0708L0.369044 40.513C-0.0196169 42.9432 1.85772 45.1447 4.31885 45.1447H29.8097C32.2708 45.1447 34.1482 42.9432 33.7595 40.513L31.7697 28.0708C31.4593 26.1302 29.7851 24.7025 27.8199 24.7025H6.30868ZM15.2606 26.905C15.2606 26.3527 15.7083 25.905 16.2606 25.905H19.0705C19.6228 25.905 20.0705 26.3527 20.0705 26.905V27.31C20.0705 27.8622 19.6228 28.31 19.0705 28.31H18.868L20.0705 30.7149L17.6655 39.1323L15.2605 30.7149L16.463 28.31H16.2606C15.7083 28.31 15.2606 27.8622 15.2606 27.31V26.905Z" fill="url(#paint0_linear_35_144)"/>
<path fill-rule="evenodd" clip-rule="evenodd" d="M6.65377 24.7025C4.68548 24.7025 3.0097 26.1345 2.70272 28.0787L0.358441 42.9258C-0.0249035 45.3536 1.85156 47.5496 4.30949 47.5496H33.4266C35.8845 47.5496 37.761 45.3536 37.3776 42.9258L35.0333 28.0787C34.7264 26.1345 33.0506 24.7025 31.0823 24.7025H6.65377ZM15.2606 26.905C15.2606 26.3527 15.7083 25.905 16.2606 25.905H19.0705C19.6228 25.905 20.0705 26.3527 20.0705 26.905V27.31C20.0705 27.8622 19.6228 28.31 19.0705 28.31H18.868L20.0705 30.7149L17.6656 39.1323L15.2606 30.7149L16.4631 28.31H16.2606C15.7083 28.31 15.2606 27.8622 15.2606 27.31V26.905Z" fill="url(#paint1_linear_35_144)"/>
<path opacity="0.4" fill-rule="evenodd" clip-rule="evenodd" d="M13.2079 18.4838C13.6775 18.0142 14.4389 18.0142 14.9084 18.4838C16.7868 20.3622 19.8323 20.3622 21.7107 18.4838C22.1803 18.0142 22.9417 18.0142 23.4113 18.4838C23.8809 18.9534 23.8809 19.7147 23.4113 20.1843C20.5937 23.0019 16.0255 23.0019 13.2079 20.1843C12.7383 19.7147 12.7383 18.9534 13.2079 18.4838Z" fill="white"/>
<path fill-rule="evenodd" clip-rule="evenodd" d="M17.6656 27.1074C24.9708 27.1074 30.8928 21.1854 30.8928 13.8802C30.8928 6.57494 24.9708 0.652893 17.6656 0.652893C10.3603 0.652893 4.43829 6.57494 4.43829 13.8802C4.43829 21.1854 10.3603 27.1074 17.6656 27.1074ZM14.9084 18.4838C14.4388 18.0142 13.6774 18.0142 13.2078 18.4838C12.7382 18.9534 12.7382 19.7147 13.2078 20.1843C16.0254 23.0019 20.5936 23.0019 23.4112 20.1843C23.8808 19.7147 23.8808 18.9534 23.4112 18.4838C22.9416 18.0142 22.1802 18.0142 21.7106 18.4838C19.8323 20.3621 16.7868 20.3621 14.9084 18.4838Z" fill="url(#paint2_linear_35_144)"/>
<path fill-rule="evenodd" clip-rule="evenodd" d="M19.4693 27.1075C25.7783 27.1075 30.8928 21.993 30.8928 15.6839C30.8928 9.37484 25.7783 4.26035 19.4693 4.26035C13.1602 4.26035 8.04572 9.37484 8.04572 15.6839C8.04572 21.993 13.1602 27.1075 19.4693 27.1075ZM14.9084 18.4838C14.4388 18.0142 13.6774 18.0142 13.2078 18.4838C12.7382 18.9534 12.7382 19.7148 13.2078 20.1844C16.0254 23.0019 20.5936 23.0019 23.4112 20.1844C23.8808 19.7148 23.8808 18.9534 23.4112 18.4838C22.9416 18.0142 22.1802 18.0142 21.7106 18.4838C19.8323 20.3622 16.7868 20.3622 14.9084 18.4838Z" fill="url(#paint3_linear_35_144)"/>
<defs>
<linearGradient id="paint0_linear_35_144" x1="32.828" y1="42.7397" x2="0.838657" y2="23.263" gradientUnits="userSpaceOnUse">
<stop stop-color="white"/>
<stop offset="1" stop-color="white" stop-opacity="0"/>
</linearGradient>
<linearGradient id="paint1_linear_35_144" x1="3.11899" y1="27.1075" x2="42.3826" y2="45.9732" gradientUnits="userSpaceOnUse">
<stop stop-color="white"/>
<stop offset="1" stop-color="white" stop-opacity="0"/>
</linearGradient>
<linearGradient id="paint2_linear_35_144" x1="29.0891" y1="21.095" x2="8.04573" y2="0.0516528" gradientUnits="userSpaceOnUse">
<stop stop-color="white"/>
<stop offset="1" stop-color="white" stop-opacity="0"/>
</linearGradient>
<linearGradient id="paint3_linear_35_144" x1="12.2544" y1="4.83426" x2="26.7115" y2="19.2913" gradientUnits="userSpaceOnUse">
<stop stop-color="white"/>
<stop offset="1" stop-color="white" stop-opacity="0"/>
</linearGradient>
</defs>
</svg>
