<svg width="41" height="48" viewBox="0 0 41 48" fill="none" xmlns="http://www.w3.org/2000/svg">
<g filter="url(#filter0_d_35_16)">
<path fill-rule="evenodd" clip-rule="evenodd" d="M8.44214 4.03717C6.233 4.03717 4.44214 5.82804 4.44214 8.03718V39.719C4.44214 41.9281 6.233 43.719 8.44214 43.719H32.9091C35.1182 43.719 36.9091 41.9281 36.9091 39.719V8.03717C36.9091 5.82803 35.1182 4.03717 32.9091 4.03717H8.44214ZM23.4793 7.64463C22.9271 7.64463 22.4793 8.09234 22.4793 8.64463V22.0017C22.4793 22.9014 23.5747 23.3434 24.1992 22.6958L27.1707 19.6143C27.5639 19.2065 28.2171 19.2065 28.6103 19.6143L31.5818 22.6958C32.2063 23.3434 33.3017 22.9014 33.3017 22.0017V8.64463C33.3017 8.09234 32.8539 7.64463 32.3017 7.64463H23.4793ZM8.04959 11.2521C8.04959 10.588 8.58796 10.0496 9.25207 10.0496H16.4669C17.1311 10.0496 17.6694 10.588 17.6694 11.2521C17.6694 11.9162 17.1311 12.4545 16.4669 12.4545H9.25207C8.58795 12.4545 8.04959 11.9162 8.04959 11.2521ZM9.25207 13.657C8.58796 13.657 8.04959 14.1954 8.04959 14.8595C8.04959 15.5236 8.58796 16.062 9.25207 16.062H12.8595C13.5236 16.062 14.062 15.5236 14.062 14.8595C14.062 14.1954 13.5236 13.657 12.8595 13.657H9.25207Z" fill="white"/>
</g>
<path opacity="0.4" d="M22.4793 8.64461C22.4793 8.09232 22.9271 7.64461 23.4793 7.64461H32.3017C32.8539 7.64461 33.3017 8.09232 33.3017 8.64461V22.1787C33.3017 23.0769 32.2094 23.5197 31.5839 22.8751L28.6082 19.8079C28.2154 19.403 27.5656 19.403 27.1728 19.8079L24.1971 22.8751C23.5716 23.5197 22.4793 23.0769 22.4793 22.1787V8.64461Z" fill="white"/>
<rect opacity="0.4" x="8.04959" y="10.0496" width="9.61983" height="6.0124" fill="white"/>
<defs>
<filter id="filter0_d_35_16" x="0.442139" y="0.0371704" width="40.4669" height="47.6818" filterUnits="userSpaceOnUse" color-interpolation-filters="sRGB">
<feFlood flood-opacity="0" result="BackgroundImageFix"/>
<feColorMatrix in="SourceAlpha" type="matrix" values="0 0 0 0 0 0 0 0 0 0 0 0 0 0 0 0 0 0 127 0" result="hardAlpha"/>
<feOffset/>
<feGaussianBlur stdDeviation="2"/>
<feComposite in2="hardAlpha" operator="out"/>
<feColorMatrix type="matrix" values="0 0 0 0 0 0 0 0 0 0 0 0 0 0 0 0 0 0 0.2 0"/>
<feBlend mode="normal" in2="BackgroundImageFix" result="effect1_dropShadow_35_16"/>
<feBlend mode="normal" in="SourceGraphic" in2="effect1_dropShadow_35_16" result="shape"/>
</filter>
</defs>
</svg>
