<svg width="38" height="44" viewBox="0 0 38 44" fill="none" xmlns="http://www.w3.org/2000/svg">
<rect x="2.97202" y="0.855347" width="30.062" height="7.21488" rx="3" fill="white"/>
<path fill-rule="evenodd" clip-rule="evenodd" d="M17.3751 43.7688V29.9286C15.3502 29.7314 13.7677 28.0243 13.7677 25.9477V24.4872C13.7677 22.278 15.5585 20.4872 17.7677 20.4872H19.3875C21.5966 20.4872 23.3875 22.278 23.3875 24.4872V25.9477C23.3875 28.0243 21.8049 29.7314 19.78 29.9286V43.7688L36.4388 22.2664C37.2556 21.2121 37.2783 19.7451 36.4946 18.666L28.7986 8.07022H18.5776H8.35649L0.660578 18.666C-0.12318 19.7451 -0.100457 21.2121 0.716345 22.2664L17.3751 43.7688Z" fill="url(#paint0_linear_35_27)"/>
<path fill-rule="evenodd" clip-rule="evenodd" d="M18.3605 40.6432L4.29015 21.4471C3.53621 20.4185 3.51499 19.0256 4.23726 17.9745L10.2168 9.27272H18.3604H18.3605H26.5041L32.4836 17.9745C33.2059 19.0256 33.1847 20.4185 32.4307 21.4471L18.3605 40.6432Z" fill="url(#paint1_linear_35_27)"/>
<defs>
<linearGradient id="paint0_linear_35_27" x1="18.2475" y1="42.3409" x2="18.2475" y2="-3.95457" gradientUnits="userSpaceOnUse">
<stop stop-color="white"/>
<stop offset="1" stop-color="white" stop-opacity="0"/>
</linearGradient>
<linearGradient id="paint1_linear_35_27" x1="18.3604" y1="9.27272" x2="18.3604" y2="40.6432" gradientUnits="userSpaceOnUse">
<stop stop-color="white"/>
<stop offset="1" stop-color="white" stop-opacity="0"/>
</linearGradient>
</defs>
</svg>
