<svg width="34" height="38" viewBox="0 0 34 38" fill="none" xmlns="http://www.w3.org/2000/svg">
<path opacity="0.4" d="M15.0552 9.92705C15.3546 9.00574 16.658 9.00574 16.9573 9.92705L17.5779 11.8369C17.7118 12.2489 18.0957 12.5279 18.5289 12.5279H20.5371C21.5058 12.5279 21.9086 13.7675 21.1248 14.3369L19.5002 15.5172C19.1498 15.7719 19.0031 16.2232 19.137 16.6353L19.7575 18.5451C20.0569 19.4664 19.0024 20.2325 18.2187 19.6631L16.5941 18.4828C16.2436 18.2281 15.769 18.2281 15.4185 18.4828L13.7939 19.6631C13.0102 20.2325 11.9557 19.4664 12.2551 18.5451L12.8756 16.6353C13.0095 16.2232 12.8628 15.7719 12.5123 15.5172L10.8877 14.3369C10.104 13.7675 10.5068 12.5279 11.4755 12.5279H13.4836C13.9169 12.5279 14.3008 12.2489 14.4347 11.8369L15.0552 9.92705Z" fill="white"/>
<mask id="path-2-inside-1_35_114" fill="white">
<path fill-rule="evenodd" clip-rule="evenodd" d="M28.692 23.0082C30.1578 20.6911 31.0063 17.9446 31.0063 15C31.0063 6.71573 24.2906 0 16.0063 0C7.72205 0 1.00633 6.71573 1.00633 15C1.00633 18.4934 2.20055 21.7079 4.20304 24.2575L0.13669 31.3006C-0.297382 32.0525 0.366997 32.9623 1.2153 32.7778L5.38124 31.8715C5.88493 31.7619 6.3894 32.0531 6.54635 32.5441L7.84442 36.6051C8.10874 37.432 9.2289 37.5525 9.66297 36.8006L13.6918 29.8225C14.4462 29.9394 15.2192 30 16.0063 30C17.3005 30 18.5565 29.8361 19.7545 29.5279L23.3761 35.8006C23.8101 36.5525 24.9303 36.432 25.1946 35.6051L26.4927 31.5441C26.6496 31.0531 27.1541 30.7619 27.6578 30.8715L31.8237 31.7778C32.672 31.9623 33.3364 31.0525 32.9023 30.3006L28.692 23.0082ZM16.9573 9.92705C16.658 9.00574 15.3546 9.00574 15.0552 9.92705L14.4347 11.8369C14.3008 12.2489 13.9169 12.5279 13.4836 12.5279H11.4755C10.5068 12.5279 10.104 13.7675 10.8877 14.3369L12.5123 15.5172C12.8628 15.7719 13.0095 16.2232 12.8756 16.6353L12.2551 18.5451C11.9557 19.4664 13.0102 20.2325 13.7939 19.6631L15.4185 18.4828C15.769 18.2281 16.2436 18.2281 16.5941 18.4828L18.2187 19.6631C19.0024 20.2325 20.0569 19.4664 19.7575 18.5451L19.137 16.6353C19.0031 16.2232 19.1498 15.7719 19.5002 15.5172L21.1248 14.3369C21.9086 13.7675 21.5058 12.5279 20.5371 12.5279H18.5289C18.0957 12.5279 17.7118 12.2489 17.5779 11.8369L16.9573 9.92705Z"/>
</mask>
<path fill-rule="evenodd" clip-rule="evenodd" d="M28.692 23.0082C30.1578 20.6911 31.0063 17.9446 31.0063 15C31.0063 6.71573 24.2906 0 16.0063 0C7.72205 0 1.00633 6.71573 1.00633 15C1.00633 18.4934 2.20055 21.7079 4.20304 24.2575L0.13669 31.3006C-0.297382 32.0525 0.366997 32.9623 1.2153 32.7778L5.38124 31.8715C5.88493 31.7619 6.3894 32.0531 6.54635 32.5441L7.84442 36.6051C8.10874 37.432 9.2289 37.5525 9.66297 36.8006L13.6918 29.8225C14.4462 29.9394 15.2192 30 16.0063 30C17.3005 30 18.5565 29.8361 19.7545 29.5279L23.3761 35.8006C23.8101 36.5525 24.9303 36.432 25.1946 35.6051L26.4927 31.5441C26.6496 31.0531 27.1541 30.7619 27.6578 30.8715L31.8237 31.7778C32.672 31.9623 33.3364 31.0525 32.9023 30.3006L28.692 23.0082ZM16.9573 9.92705C16.658 9.00574 15.3546 9.00574 15.0552 9.92705L14.4347 11.8369C14.3008 12.2489 13.9169 12.5279 13.4836 12.5279H11.4755C10.5068 12.5279 10.104 13.7675 10.8877 14.3369L12.5123 15.5172C12.8628 15.7719 13.0095 16.2232 12.8756 16.6353L12.2551 18.5451C11.9557 19.4664 13.0102 20.2325 13.7939 19.6631L15.4185 18.4828C15.769 18.2281 16.2436 18.2281 16.5941 18.4828L18.2187 19.6631C19.0024 20.2325 20.0569 19.4664 19.7575 18.5451L19.137 16.6353C19.0031 16.2232 19.1498 15.7719 19.5002 15.5172L21.1248 14.3369C21.9086 13.7675 21.5058 12.5279 20.5371 12.5279H18.5289C18.0957 12.5279 17.7118 12.2489 17.5779 11.8369L16.9573 9.92705Z" fill="white" fill-opacity="0.6"/>
<path d="M28.692 23.0082L27.8469 22.4736L27.5237 22.9846L27.826 23.5082L28.692 23.0082ZM4.20304 24.2575L5.06906 24.7575L5.40725 24.1718L4.98947 23.6398L4.20304 24.2575ZM0.13669 31.3006L1.00271 31.8006H1.00271L0.13669 31.3006ZM1.2153 32.7778L1.00272 31.8006L1.00272 31.8006L1.2153 32.7778ZM5.38124 31.8715L5.59382 32.8486H5.59382L5.38124 31.8715ZM6.54635 32.5441L7.49887 32.2397H7.49887L6.54635 32.5441ZM7.84442 36.6051L8.79694 36.3006H8.79694L7.84442 36.6051ZM9.66297 36.8006L10.529 37.3006H10.529L9.66297 36.8006ZM13.6918 29.8225L13.8448 28.8343L13.1681 28.7295L12.8258 29.3225L13.6918 29.8225ZM19.7545 29.5279L20.6205 29.0279L20.2408 28.3702L19.5054 28.5594L19.7545 29.5279ZM23.3761 35.8006L22.51 36.3006H22.51L23.3761 35.8006ZM25.1946 35.6051L24.2421 35.3006L25.1946 35.6051ZM26.4927 31.5441L27.4452 31.8486V31.8486L26.4927 31.5441ZM27.6578 30.8715L27.4452 31.8486V31.8486L27.6578 30.8715ZM31.8237 31.7778L32.0363 30.8006V30.8006L31.8237 31.7778ZM32.9023 30.3006L33.7684 29.8006L33.7684 29.8006L32.9023 30.3006ZM15.0552 9.92705L16.0063 10.2361L15.0552 9.92705ZM16.9573 9.92705L16.0063 10.2361L16.0063 10.2361L16.9573 9.92705ZM14.4347 11.8369L13.4836 11.5279V11.5279L14.4347 11.8369ZM10.8877 14.3369L11.4755 13.5279H11.4755L10.8877 14.3369ZM12.5123 15.5172L11.9245 16.3262H11.9245L12.5123 15.5172ZM12.8756 16.6353L13.8267 16.9443L12.8756 16.6353ZM12.2551 18.5451L11.304 18.2361L12.2551 18.5451ZM13.7939 19.6631L14.3817 20.4721H14.3817L13.7939 19.6631ZM15.4185 18.4828L14.8307 17.6738H14.8307L15.4185 18.4828ZM16.5941 18.4828L16.0063 19.2918L16.0063 19.2918L16.5941 18.4828ZM18.2187 19.6631L17.6309 20.4721L18.2187 19.6631ZM19.7575 18.5451L18.8065 18.8541L19.7575 18.5451ZM19.137 16.6353L20.088 16.3262L19.137 16.6353ZM19.5002 15.5172L18.9125 14.7082V14.7082L19.5002 15.5172ZM21.1248 14.3369L20.5371 13.5279H20.5371L21.1248 14.3369ZM17.5779 11.8369L16.6268 12.1459V12.1459L17.5779 11.8369ZM30.0063 15C30.0063 17.7498 29.2145 20.3117 27.8469 22.4736L29.5371 23.5428C31.1011 21.0704 32.0063 18.1394 32.0063 15H30.0063ZM16.0063 1C23.7383 1 30.0063 7.26801 30.0063 15H32.0063C32.0063 6.16344 24.8429 -1 16.0063 -1V1ZM2.00633 15C2.00633 7.26801 8.27434 1 16.0063 1V-1C7.16977 -1 0.00632574 6.16344 0.00632574 15H2.00633ZM4.98947 23.6398C3.12041 21.2601 2.00633 18.2616 2.00633 15H0.00632574C0.00632574 18.7253 1.2807 22.1557 3.4166 24.8752L4.98947 23.6398ZM1.00271 31.8006L5.06906 24.7575L3.33701 23.7575L-0.729336 30.8006L1.00271 31.8006ZM1.00272 31.8006L1.00271 31.8006L-0.729336 30.8006C-1.59748 32.3043 -0.268721 34.124 1.42788 33.7549L1.00272 31.8006ZM5.16866 30.8943L1.00272 31.8006L1.42788 33.7549L5.59382 32.8486L5.16866 30.8943ZM7.49887 32.2397C7.18497 31.2577 6.17605 30.6752 5.16866 30.8943L5.59382 32.8486H5.59382L7.49887 32.2397ZM8.79694 36.3006L7.49887 32.2397L5.59382 32.8486L6.8919 36.9096L8.79694 36.3006ZM8.79694 36.3006V36.3006L6.8919 36.9096C7.42055 38.5634 9.66085 38.8043 10.529 37.3006L8.79694 36.3006ZM12.8258 29.3225L8.79694 36.3006L10.529 37.3006L14.5578 30.3225L12.8258 29.3225ZM16.0063 29C15.2706 29 14.5488 28.9433 13.8448 28.8343L13.5387 30.8107C14.3436 30.9354 15.1678 31 16.0063 31V29ZM19.5054 28.5594C18.388 28.8469 17.2158 29 16.0063 29V31C17.3853 31 18.7249 30.8253 20.0036 30.4964L19.5054 28.5594ZM24.2421 35.3006L20.6205 29.0279L18.8885 30.0279L22.51 36.3006L24.2421 35.3006ZM24.2421 35.3006V35.3006L22.51 36.3006C23.3782 37.8043 25.6185 37.5634 26.1471 35.9096L24.2421 35.3006ZM25.5402 31.2397L24.2421 35.3006L26.1471 35.9096L27.4452 31.8486L25.5402 31.2397ZM27.8704 29.8943C26.863 29.6752 25.854 30.2577 25.5402 31.2397L27.4452 31.8486V31.8486L27.8704 29.8943ZM32.0363 30.8006L27.8704 29.8943L27.4452 31.8486L31.6111 32.7549L32.0363 30.8006ZM32.0363 30.8006V30.8006L31.6111 32.7549C33.3077 33.124 34.6365 31.3043 33.7684 29.8006L32.0363 30.8006ZM27.826 23.5082L32.0363 30.8006L33.7684 29.8006L29.5581 22.5082L27.826 23.5082ZM16.0063 10.2361L16.0063 10.2361L17.9084 9.61803C17.3097 7.77542 14.7029 7.77541 14.1042 9.61803L16.0063 10.2361ZM15.3857 12.1459L16.0063 10.2361L14.1042 9.61803L13.4836 11.5279L15.3857 12.1459ZM13.4836 13.5279C14.3501 13.5279 15.118 12.9699 15.3857 12.1459L13.4836 11.5279H13.4836V13.5279ZM11.4755 13.5279H13.4836V11.5279H11.4755V13.5279ZM11.4755 13.5279L11.4755 13.5279V11.5279C9.53808 11.5279 8.73251 14.0071 10.2999 15.1459L11.4755 13.5279ZM13.1001 14.7082L11.4755 13.5279L10.2999 15.1459L11.9245 16.3262L13.1001 14.7082ZM13.8267 16.9443C14.0944 16.1202 13.8011 15.2175 13.1001 14.7082L11.9245 16.3262H11.9245L13.8267 16.9443ZM13.2061 18.8541L13.8267 16.9443L11.9245 16.3262L11.304 18.2361L13.2061 18.8541ZM13.2061 18.8541V18.8541L11.304 18.2361C10.7053 20.0787 12.8143 21.6109 14.3817 20.4721L13.2061 18.8541ZM14.8307 17.6738L13.2061 18.8541L14.3817 20.4721L16.0063 19.2918L14.8307 17.6738ZM17.1819 17.6738C16.4809 17.1645 15.5317 17.1645 14.8307 17.6738L16.0063 19.2918L16.0063 19.2918L17.1819 17.6738ZM18.8065 18.8541L17.1819 17.6738L16.0063 19.2918L17.6309 20.4721L18.8065 18.8541ZM18.8065 18.8541V18.8541L17.6309 20.4721C19.1983 21.6109 21.3073 20.0787 20.7086 18.2361L18.8065 18.8541ZM18.1859 16.9443L18.8065 18.8541L20.7086 18.2361L20.088 16.3262L18.1859 16.9443ZM18.9125 14.7082C18.2115 15.2175 17.9182 16.1202 18.1859 16.9443L20.088 16.3262V16.3262L18.9125 14.7082ZM20.5371 13.5279L18.9125 14.7082L20.088 16.3262L21.7126 15.1459L20.5371 13.5279ZM20.5371 13.5279V13.5279L21.7126 15.1459C23.2801 14.0071 22.4745 11.5279 20.5371 11.5279V13.5279ZM18.5289 13.5279H20.5371V11.5279H18.5289V13.5279ZM16.6268 12.1459C16.8946 12.9699 17.6625 13.5279 18.5289 13.5279V11.5279L18.5289 11.5279L16.6268 12.1459ZM16.0063 10.2361L16.6268 12.1459L18.5289 11.5279L17.9084 9.61803L16.0063 10.2361Z" fill="white" fill-opacity="0.8" mask="url(#path-2-inside-1_35_114)"/>
<path fill-rule="evenodd" clip-rule="evenodd" d="M16.0063 28C23.186 28 29.0063 22.1797 29.0063 15C29.0063 7.8203 23.186 2 16.0063 2C8.82658 2 3.00629 7.8203 3.00629 15C3.00629 22.1797 8.82658 28 16.0063 28ZM17.5779 11.8369L16.9573 9.92705C16.658 9.00574 15.3546 9.00574 15.0552 9.92705L14.4347 11.8369C14.3008 12.2489 13.9169 12.5279 13.4836 12.5279H11.4755C10.5068 12.5279 10.104 13.7675 10.8877 14.3369L12.5123 15.5172C12.8628 15.7719 13.0095 16.2232 12.8756 16.6353L12.2551 18.5451C11.9557 19.4664 13.0102 20.2325 13.7939 19.6631L15.4185 18.4828C15.769 18.2281 16.2436 18.2281 16.5941 18.4828L18.2187 19.6631C19.0024 20.2325 20.0569 19.4664 19.7575 18.5451L19.137 16.6353C19.0031 16.2232 19.1498 15.7719 19.5002 15.5172L21.1248 14.3369C21.9086 13.7675 21.5058 12.5279 20.5371 12.5279H18.5289C18.0957 12.5279 17.7118 12.2489 17.5779 11.8369Z" fill="url(#paint0_linear_35_114)"/>
<defs>
<linearGradient id="paint0_linear_35_114" x1="7.50629" y1="5.5" x2="24.5063" y2="26" gradientUnits="userSpaceOnUse">
<stop stop-color="white" stop-opacity="0.88"/>
<stop offset="0.230366" stop-color="white"/>
<stop offset="0.715364" stop-color="white"/>
<stop offset="1" stop-color="white" stop-opacity="0"/>
</linearGradient>
</defs>
</svg>
