<svg width="44" height="41" viewBox="0 0 44 41" fill="none" xmlns="http://www.w3.org/2000/svg">
<path fill-rule="evenodd" clip-rule="evenodd" d="M10.0496 37.7603C9.49727 37.7603 9.04956 38.208 9.04956 38.7603V39.1653C9.04956 39.7176 9.49728 40.1653 10.0496 40.1653H35.7066C36.2589 40.1653 36.7066 39.7176 36.7066 39.1653V38.7603C36.7066 38.208 36.2589 37.7603 35.7066 37.7603H33.4917C31.2826 37.7603 29.4917 35.9695 29.4917 33.7603V29.1405C29.4917 28.5882 29.044 28.1405 28.4917 28.1405H17.2645C16.7122 28.1405 16.2645 28.5882 16.2645 29.1405V33.7603C16.2645 35.9695 14.4736 37.7603 12.2645 37.7603H10.0496Z" fill="url(#paint0_linear_35_42)"/>
<path fill-rule="evenodd" clip-rule="evenodd" d="M2.6322 0.483459C1.52763 0.483459 0.632202 1.37889 0.632202 2.48346V29.7479C0.632202 30.8525 1.52763 31.7479 2.6322 31.7479H41.9215C43.026 31.7479 43.9215 30.8525 43.9215 29.7479V2.48346C43.9215 1.37889 43.026 0.483459 41.9215 0.483459H2.6322ZM10.2521 9.90083C10.2521 9.34854 10.6998 8.90083 11.2521 8.90083H33.3017C33.8539 8.90083 34.3017 9.34854 34.3017 9.90083V10.3058C34.3017 10.8581 33.8539 11.3058 33.3017 11.3058H11.2521C10.6998 11.3058 10.2521 10.8581 10.2521 10.3058V9.90083ZM10.2521 18.3182C10.2521 17.7659 10.6998 17.3182 11.2521 17.3182H24.8843C25.4366 17.3182 25.8843 17.7659 25.8843 18.3182V18.7232C25.8843 19.2754 25.4366 19.7231 24.8843 19.7231H11.2521C10.6998 19.7231 10.2521 19.2754 10.2521 18.7231V18.3182Z" fill="url(#paint1_linear_35_42)"/>
<path opacity="0.4" fill-rule="evenodd" clip-rule="evenodd" d="M11.252 8.90082C10.6997 8.90082 10.252 9.34853 10.252 9.90082V10.3058C10.252 10.8581 10.6997 11.3058 11.252 11.3058H33.3016C33.8539 11.3058 34.3016 10.8581 34.3016 10.3058V9.90082C34.3016 9.34853 33.8539 8.90082 33.3016 8.90082H11.252ZM11.252 17.3182C10.6997 17.3182 10.252 17.7659 10.252 18.3182V18.7231C10.252 19.2754 10.6997 19.7231 11.252 19.7231H24.8842C25.4365 19.7231 25.8842 19.2754 25.8842 18.7231V18.3182C25.8842 17.7659 25.4365 17.3182 24.8842 17.3182H11.252Z" fill="white"/>
<path fill-rule="evenodd" clip-rule="evenodd" d="M2.6322 0.483459C1.52763 0.483459 0.632202 1.37889 0.632202 2.48346V27.343C0.632202 28.4475 1.52763 29.343 2.6322 29.343H29.4108C30.1928 29.343 30.9031 28.8872 31.2289 28.1763L42.6229 3.31677C43.23 1.992 42.262 0.483459 40.8047 0.483459H2.6322ZM10.2521 9.90083C10.2521 9.34854 10.6998 8.90083 11.2521 8.90083H33.3017C33.8539 8.90083 34.3017 9.34854 34.3017 9.90083V10.3058C34.3017 10.8581 33.8539 11.3058 33.3017 11.3058H11.2521C10.6998 11.3058 10.2521 10.8581 10.2521 10.3058V9.90083ZM10.2521 18.3182C10.2521 17.7659 10.6998 17.3182 11.2521 17.3182H24.8843C25.4366 17.3182 25.8843 17.7659 25.8843 18.3182V18.7232C25.8843 19.2754 25.4366 19.7231 24.8843 19.7231H11.2521C10.6998 19.7231 10.2521 19.2754 10.2521 18.7231V18.3182Z" fill="url(#paint2_linear_35_42)"/>
<defs>
<linearGradient id="paint0_linear_35_42" x1="28.8905" y1="40.1653" x2="28.8905" y2="28.7417" gradientUnits="userSpaceOnUse">
<stop stop-color="white"/>
<stop offset="1" stop-color="white" stop-opacity="0"/>
</linearGradient>
<linearGradient id="paint1_linear_35_42" x1="0.632202" y1="0.483459" x2="52.9401" y2="31.7479" gradientUnits="userSpaceOnUse">
<stop stop-color="white"/>
<stop offset="1" stop-color="white" stop-opacity="0.5"/>
</linearGradient>
<linearGradient id="paint2_linear_35_42" x1="30.8559" y1="28.7417" x2="0.78437" y2="0.322444" gradientUnits="userSpaceOnUse">
<stop stop-color="white"/>
<stop offset="1" stop-color="white" stop-opacity="0"/>
</linearGradient>
</defs>
</svg>
