<svg width="41" height="42" viewBox="0 0 41 42" fill="none" xmlns="http://www.w3.org/2000/svg">
<path d="M0.0412598 8.281C0.0412598 3.86272 3.62298 0.281006 8.04126 0.281006H11.2809C15.6992 0.281006 19.2809 3.86273 19.2809 8.28101V19.5207H8.04125C3.62298 19.5207 0.0412598 15.939 0.0412598 11.5207V8.281Z" fill="url(#paint0_radial_35_167)"/>
<path d="M2.44617 10.6859C2.44617 6.26766 6.02789 2.68594 10.4462 2.68594H11.2809C15.6992 2.68594 19.2809 6.26766 19.2809 10.6859V19.5207H10.4462C6.02789 19.5207 2.44617 15.9389 2.44617 11.5207V10.6859Z" fill="url(#paint1_linear_35_167)"/>
<path d="M40.9256 8.281C40.9256 3.86272 37.3438 0.281006 32.9256 0.281006H29.6859C25.2676 0.281006 21.6859 3.86273 21.6859 8.28101V19.5207H32.9256C37.3439 19.5207 40.9256 15.939 40.9256 11.5207V8.281Z" fill="url(#paint2_radial_35_167)"/>
<path d="M38.5206 10.6859C38.5206 6.26766 34.9388 2.68594 30.5206 2.68594H29.6859C25.2676 2.68594 21.6859 6.26766 21.6859 10.6859V19.5207H30.5206C34.9388 19.5207 38.5206 15.9389 38.5206 11.5207V10.6859Z" fill="url(#paint3_linear_35_167)"/>
<path d="M0.0412598 33.1653C0.0412598 37.5836 3.62298 41.1653 8.04126 41.1653H11.2809C15.6992 41.1653 19.2809 37.5836 19.2809 33.1653V21.9256H8.04125C3.62298 21.9256 0.0412598 25.5074 0.0412598 29.9256V33.1653Z" fill="url(#paint4_radial_35_167)"/>
<path d="M2.44617 30.7604C2.44617 35.1787 6.02789 38.7604 10.4462 38.7604H11.2809C15.6992 38.7604 19.2809 35.1787 19.2809 30.7604V21.9257H10.4462C6.02789 21.9257 2.44617 25.5074 2.44617 29.9257V30.7604Z" fill="url(#paint5_linear_35_167)"/>
<path d="M40.9256 33.1653C40.9256 37.5836 37.3438 41.1653 32.9256 41.1653H29.6859C25.2676 41.1653 21.6859 37.5836 21.6859 33.1653V21.9256H32.9256C37.3439 21.9256 40.9256 25.5074 40.9256 29.9256V33.1653Z" fill="url(#paint6_radial_35_167)"/>
<path d="M38.5206 30.7604C38.5206 35.1787 34.9388 38.7604 30.5206 38.7604H29.6859C25.2676 38.7604 21.6859 35.1787 21.6859 30.7604V21.9257H30.5206C34.9388 21.9257 38.5206 25.5074 38.5206 29.9257V30.7604Z" fill="url(#paint7_linear_35_167)"/>
<defs>
<radialGradient id="paint0_radial_35_167" cx="0" cy="0" r="1" gradientUnits="userSpaceOnUse" gradientTransform="translate(10.8636 10.5021) rotate(49.0856) scale(11.9343)">
<stop offset="0.28869" stop-color="white" stop-opacity="0"/>
<stop offset="0.803425" stop-color="white"/>
<stop offset="1" stop-color="white" stop-opacity="0.8"/>
</radialGradient>
<linearGradient id="paint1_linear_35_167" x1="6.65485" y1="3.88842" x2="21.0846" y2="18.3182" gradientUnits="userSpaceOnUse">
<stop stop-color="white"/>
<stop offset="1" stop-color="white" stop-opacity="0"/>
</linearGradient>
<radialGradient id="paint2_radial_35_167" cx="0" cy="0" r="1" gradientUnits="userSpaceOnUse" gradientTransform="translate(30.1033 10.5021) rotate(130.914) scale(11.9343)">
<stop offset="0.28869" stop-color="white" stop-opacity="0"/>
<stop offset="0.803425" stop-color="white"/>
<stop offset="1" stop-color="white" stop-opacity="0.8"/>
</radialGradient>
<linearGradient id="paint3_linear_35_167" x1="34.3119" y1="3.88842" x2="19.8821" y2="18.3182" gradientUnits="userSpaceOnUse">
<stop stop-color="white"/>
<stop offset="1" stop-color="white" stop-opacity="0"/>
</linearGradient>
<radialGradient id="paint4_radial_35_167" cx="0" cy="0" r="1" gradientUnits="userSpaceOnUse" gradientTransform="translate(10.8636 30.9442) rotate(-49.0856) scale(11.9343)">
<stop offset="0.28869" stop-color="white" stop-opacity="0"/>
<stop offset="0.803425" stop-color="white"/>
<stop offset="1" stop-color="white" stop-opacity="0.8"/>
</radialGradient>
<linearGradient id="paint5_linear_35_167" x1="6.65485" y1="37.5579" x2="21.0846" y2="23.1281" gradientUnits="userSpaceOnUse">
<stop stop-color="white"/>
<stop offset="1" stop-color="white" stop-opacity="0"/>
</linearGradient>
<radialGradient id="paint6_radial_35_167" cx="0" cy="0" r="1" gradientUnits="userSpaceOnUse" gradientTransform="translate(30.1033 30.9442) rotate(-130.914) scale(11.9343)">
<stop offset="0.28869" stop-color="white" stop-opacity="0"/>
<stop offset="0.803425" stop-color="white"/>
<stop offset="1" stop-color="white" stop-opacity="0.8"/>
</radialGradient>
<linearGradient id="paint7_linear_35_167" x1="34.3119" y1="37.5579" x2="19.8821" y2="23.1281" gradientUnits="userSpaceOnUse">
<stop stop-color="white"/>
<stop offset="1" stop-color="white" stop-opacity="0"/>
</linearGradient>
</defs>
</svg>
