<svg width="38" height="37" viewBox="0 0 38 37" fill="none" xmlns="http://www.w3.org/2000/svg">
<rect x="33.2341" y="23.3345" width="27" height="6" rx="3" transform="rotate(-135 33.2341 23.3345)" fill="white"/>
<path opacity="0.8" fill-rule="evenodd" clip-rule="evenodd" d="M21.9204 36.0626C26.2161 31.7668 25.1081 23.6939 19.4455 18.0313C13.7829 12.3687 5.71005 11.2607 1.41428 15.5565L21.9204 36.0626Z" fill="url(#paint0_linear_35_225)"/>
<path opacity="0.8" fill-rule="evenodd" clip-rule="evenodd" d="M23.9801 25.5175C23.2198 22.9003 21.6906 20.2763 19.4456 18.0313C17.2004 15.7861 14.5765 14.257 11.9592 13.4967L17.6778 7.77814L29.6986 19.799L23.9801 25.5175Z" fill="url(#paint1_linear_35_225)"/>
<path d="M2.12132 34.6483L7.77818 24.7488L12.0208 28.9914L2.12132 34.6483Z" fill="white"/>
<path fill-rule="evenodd" clip-rule="evenodd" d="M23.8807 25.1897C23.0907 22.6819 21.5968 20.1827 19.4455 18.0313C13.7829 12.3687 5.71004 11.2607 1.41428 15.5565L15.007 29.1492C16.235 27.9566 17.5661 26.8424 18.7028 26.2741C20.4401 25.4054 22.4569 25.183 23.8807 25.1897Z" fill="url(#paint2_linear_35_225)"/>
<defs>
<linearGradient id="paint0_linear_35_225" x1="21.7029" y1="27.274" x2="19.2029" y2="35.274" gradientUnits="userSpaceOnUse">
<stop stop-color="white"/>
<stop offset="1" stop-color="white" stop-opacity="0"/>
</linearGradient>
<linearGradient id="paint1_linear_35_225" x1="19.7028" y1="18.274" x2="26.2029" y2="11.274" gradientUnits="userSpaceOnUse">
<stop stop-color="white"/>
<stop offset="1" stop-color="white" stop-opacity="0"/>
</linearGradient>
<linearGradient id="paint2_linear_35_225" x1="21.7029" y1="25.774" x2="8.20285" y2="21.274" gradientUnits="userSpaceOnUse">
<stop stop-color="white"/>
<stop offset="1" stop-color="white" stop-opacity="0"/>
</linearGradient>
</defs>
</svg>
