<svg width="41" height="41" viewBox="0 0 41 41" fill="none" xmlns="http://www.w3.org/2000/svg">
<mask id="path-1-inside-1_35_243" fill="white">
<path fill-rule="evenodd" clip-rule="evenodd" d="M16.0784 41.0002H1.99997C0.895402 41.0002 -3.05176e-05 40.1048 -3.05176e-05 39.0002V24.9217L2.37762e-05 24.9217L14.6643 10.2575C15.4453 9.47643 16.7117 9.47643 17.4927 10.2575L30.7428 23.5075C31.5238 24.2886 31.5238 25.5549 30.7428 26.336L16.0785 41.0003L16.0784 41.0002Z"/>
</mask>
<path fill-rule="evenodd" clip-rule="evenodd" d="M16.0784 41.0002H1.99997C0.895402 41.0002 -3.05176e-05 40.1048 -3.05176e-05 39.0002V24.9217L2.37762e-05 24.9217L14.6643 10.2575C15.4453 9.47643 16.7117 9.47643 17.4927 10.2575L30.7428 23.5075C31.5238 24.2886 31.5238 25.5549 30.7428 26.336L16.0785 41.0003L16.0784 41.0002Z" fill="white" fill-opacity="0.6"/>
<path d="M16.0784 41.0002L16.7855 40.2931L16.4926 40.0002H16.0784V41.0002ZM-3.05176e-05 24.9217L0.707503 24.215L-1.00003 22.5054V24.9217H-3.05176e-05ZM2.37762e-05 24.9217L-0.70751 25.6284L-0.000403479 26.3364L0.707131 25.6288L2.37762e-05 24.9217ZM14.6643 10.2575L13.9572 9.55037V9.55037L14.6643 10.2575ZM17.4927 10.2575L16.7856 10.9646V10.9646L17.4927 10.2575ZM30.7428 23.5075L30.0357 24.2147H30.0357L30.7428 23.5075ZM30.7428 26.336L31.4499 27.0431L30.7428 26.336ZM16.0785 41.0003L15.3714 41.7074L16.0785 42.4145L16.7856 41.7074L16.0785 41.0003ZM1.99997 42.0002H16.0784V40.0002H1.99997V42.0002ZM-1.00003 39.0002C-1.00003 40.657 0.343118 42.0002 1.99997 42.0002V40.0002C1.44769 40.0002 0.999969 39.5525 0.999969 39.0002H-1.00003ZM-1.00003 24.9217V39.0002H0.999969V24.9217H-1.00003ZM0.707558 24.2151L0.707503 24.215L-0.707564 25.6284L-0.70751 25.6284L0.707558 24.2151ZM0.707131 25.6288L15.3714 10.9646L13.9572 9.55037L-0.707083 24.2146L0.707131 25.6288ZM15.3714 10.9646C15.7619 10.5741 16.3951 10.5741 16.7856 10.9646L18.1998 9.55037C17.0282 8.3788 15.1287 8.3788 13.9572 9.55037L15.3714 10.9646ZM16.7856 10.9646L30.0357 24.2147L31.4499 22.8004L18.1998 9.55037L16.7856 10.9646ZM30.0357 24.2147C30.4262 24.6052 30.4262 25.2383 30.0357 25.6289L31.4499 27.0431C32.6215 25.8715 32.6215 23.972 31.4499 22.8004L30.0357 24.2147ZM30.0357 25.6289L15.3714 40.2932L16.7856 41.7074L31.4499 27.0431L30.0357 25.6289ZM16.7856 40.2932L16.7855 40.2931L15.3713 41.7073L15.3714 41.7074L16.7856 40.2932Z" fill="white" fill-opacity="0.8" mask="url(#path-1-inside-1_35_243)"/>
<path d="M19.1003 8.6496C18.3193 7.86855 18.3193 6.60222 19.1003 5.82117L22.093 2.82848C23.6551 1.26639 26.1878 1.26639 27.7498 2.82848L38.1715 13.2501C39.7336 14.8122 39.7336 17.3449 38.1715 18.907L35.1788 21.8997C34.3978 22.6807 33.1314 22.6807 32.3504 21.8997L19.1003 8.6496Z" fill="white" fill-opacity="0.6"/>
<path d="M19.4539 8.29604C18.8681 7.71026 18.8681 6.76051 19.4539 6.17472L22.4465 3.18204C23.8134 1.8152 26.0295 1.8152 27.3963 3.18204L37.8179 13.6037C39.1848 14.9705 39.1848 17.1866 37.8179 18.5534L34.8253 21.5461C34.2395 22.1319 33.2897 22.1319 32.7039 21.5461L19.4539 8.29604Z" stroke="white" stroke-opacity="0.8"/>
<path fill-rule="evenodd" clip-rule="evenodd" d="M21.9781 14.743L17.4926 10.2575C16.7116 9.47641 15.4453 9.47641 14.6642 10.2575L-6.89607e-05 24.9217L16.0784 41.0002L19.774 37.3047C21.9762 30.7943 24.3347 20.4009 21.9781 14.743Z" fill="url(#paint0_linear_35_243)"/>
<defs>
<linearGradient id="paint0_linear_35_243" x1="16.4804" y1="10.8768" x2="15.3434" y2="39.8683" gradientUnits="userSpaceOnUse">
<stop stop-color="white"/>
<stop offset="1" stop-color="white" stop-opacity="0"/>
</linearGradient>
</defs>
</svg>
