<svg width="36" height="37" viewBox="0 0 36 37" fill="none" xmlns="http://www.w3.org/2000/svg">
<path d="M9 4C9 2.34315 10.3431 1 12 1H24C25.6569 1 27 2.34315 27 4V8H9V4Z" stroke="url(#paint0_linear_35_102)" stroke-width="2"/>
<g opacity="0.5">
<mask id="path-2-inside-1_35_102" fill="white">
<path fill-rule="evenodd" clip-rule="evenodd" d="M4 7C1.79086 7 0 8.79086 0 11V33C0 35.2091 1.79086 37 4 37H32C34.2091 37 36 35.2091 36 33V11C36 8.79086 34.2091 7 32 7H4ZM9 21C9 19.8954 9.89543 19 11 19C12.1046 19 13 19.8954 13 21V27C13 28.1046 12.1046 29 11 29C9.89543 29 9 28.1046 9 27V21ZM23 21C23 19.8954 23.8954 19 25 19C26.1046 19 27 19.8954 27 21V27C27 28.1046 26.1046 29 25 29C23.8954 29 23 28.1046 23 27V21Z"/>
</mask>
<path fill-rule="evenodd" clip-rule="evenodd" d="M4 7C1.79086 7 0 8.79086 0 11V33C0 35.2091 1.79086 37 4 37H32C34.2091 37 36 35.2091 36 33V11C36 8.79086 34.2091 7 32 7H4ZM9 21C9 19.8954 9.89543 19 11 19C12.1046 19 13 19.8954 13 21V27C13 28.1046 12.1046 29 11 29C9.89543 29 9 28.1046 9 27V21ZM23 21C23 19.8954 23.8954 19 25 19C26.1046 19 27 19.8954 27 21V27C27 28.1046 26.1046 29 25 29C23.8954 29 23 28.1046 23 27V21Z" fill="white" fill-opacity="0.8"/>
<path d="M1 11C1 9.34315 2.34315 8 4 8V6C1.23858 6 -1 8.23858 -1 11H1ZM1 33V11H-1V33H1ZM4 36C2.34315 36 1 34.6569 1 33H-1C-1 35.7614 1.23858 38 4 38V36ZM32 36H4V38H32V36ZM35 33C35 34.6569 33.6569 36 32 36V38C34.7614 38 37 35.7614 37 33H35ZM35 11V33H37V11H35ZM32 8C33.6569 8 35 9.34315 35 11H37C37 8.23858 34.7614 6 32 6V8ZM4 8H32V6H4V8ZM11 18C9.34315 18 8 19.3431 8 21H10C10 20.4477 10.4477 20 11 20V18ZM14 21C14 19.3431 12.6569 18 11 18V20C11.5523 20 12 20.4477 12 21H14ZM14 27V21H12V27H14ZM11 30C12.6569 30 14 28.6569 14 27H12C12 27.5523 11.5523 28 11 28V30ZM8 27C8 28.6569 9.34315 30 11 30V28C10.4477 28 10 27.5523 10 27H8ZM8 21V27H10V21H8ZM25 18C23.3431 18 22 19.3431 22 21H24C24 20.4477 24.4477 20 25 20V18ZM28 21C28 19.3431 26.6569 18 25 18V20C25.5523 20 26 20.4477 26 21H28ZM28 27V21H26V27H28ZM25 30C26.6569 30 28 28.6569 28 27H26C26 27.5523 25.5523 28 25 28V30ZM22 27C22 28.6569 23.3431 30 25 30V28C24.4477 28 24 27.5523 24 27H22ZM22 21V27H24V21H22Z" fill="white" mask="url(#path-2-inside-1_35_102)"/>
</g>
<path fill-rule="evenodd" clip-rule="evenodd" d="M4 7C1.79086 7 0 8.79086 0 11V17C0 19.2091 1.79086 21 4 21H22.919C22.9459 20.9999 22.9729 20.9999 23 20.9999C32.8195 20.9999 35.7287 14.2504 35.9884 10.6928C35.8315 8.62722 34.1058 7 32 7H4Z" fill="url(#paint1_linear_35_102)"/>
<defs>
<linearGradient id="paint0_linear_35_102" x1="18" y1="0" x2="18" y2="9" gradientUnits="userSpaceOnUse">
<stop stop-color="white"/>
<stop offset="1" stop-color="white" stop-opacity="0"/>
</linearGradient>
<linearGradient id="paint1_linear_35_102" x1="1.5" y1="8" x2="35" y2="21" gradientUnits="userSpaceOnUse">
<stop stop-color="white"/>
<stop offset="1" stop-color="white" stop-opacity="0"/>
</linearGradient>
</defs>
</svg>
